<?xml version="1.0" encoding="utf-8"?>
<!-- Generator: Adobe Illustrator 13.0.0, SVG Export Plug-In . SVG Version: 6.00 Build 14948)  -->
<!DOCTYPE svg PUBLIC "-//W3C//DTD SVG 1.1//EN" "http://www.w3.org/Graphics/SVG/1.1/DTD/svg11.dtd">
<svg version="1.1" id="Layer_1" xmlns="http://www.w3.org/2000/svg" xmlns:xlink="http://www.w3.org/1999/xlink" x="0px" y="0px"
	 width="100%" height="100%" viewBox="176.052 0 453.385 598.529"
	 enable-background="new 176.052 0 453.385 598.529" preserveAspectRatio="xMinYMin meet" xml:space="preserve">
<g>
	<path fill="#28717E" d="M622.944,194.598l0.187,0.873l-23.497,23.498l10.62,20.922l-63.734,52.145c0,0-2.896-15.127-7.083-10.943
		l-34.352,30.96l-10.132,10.095h-1.072l-6.588,5.939l16.099,16.093l-4.508,13.518l-63.738,19.959h-43.771v-9.657l-62.442-12.232
		l-8.37-22.535l-28.327,4.508l-11.081-20.315l-1.269-0.164l-15.331,15.332l-40.559-3.867l-10.3-10.299l-37.339-6.433
		c0,0,0.021-0.018,0.055-0.042l-0.913,0.188V599.5h448V194.044L622.944,194.598z"/>
	<path fill="#A0CA10" stroke="#A0CA10" stroke-width="6.6112" stroke-linecap="round" stroke-linejoin="round" d="M176.357,311.993
		c0,0,31.545-23.821,37.98-37.982h18.025v-30.9l17.704-17.704l-17.704-67.273l18.024,11.587h22.532l-13.198-13.198l2.898-15.128
		l21.887,9.656l5.795,16.739l42.488,24.462l30.9-10.944l-11.586-31.544l-24.465-5.151l3.221-12.875h17.381l11.909-11.908
		l-4.829-17.06L409.396,63.5l36.052-5.148l-5.795-27.04l-15.447-7.079l16.093-16.738l18.025,9.013l4.505-12.231h14.164
		l50.859,45.706l5.792,29.613l-24.138,24.139l21.563,52.467l56.654,20.6l28.971-11.586l6.436,30.256l-23.495,23.499l10.618,20.922
		l-63.734,52.145c0,0-2.896-15.128-7.083-10.943l-52.144,46.993l16.099,16.094l-4.508,13.517l-63.738,19.959h-43.771v-9.657
		l-62.442-12.232l-8.37-22.533l-28.327,4.508l-11.587-21.247l-16.094,16.098l-40.559-3.867l-10.3-10.299L176.357,311.993z"/>
	<path fill="#C1EB2E" d="M263.107,222.253c0.972,0,1.759,0.788,1.759,1.761c0,0.973-0.788,1.762-1.759,1.762
		c-0.976,0-1.763-0.789-1.763-1.762C261.344,223.042,262.131,222.253,263.107,222.253z"/>
	<g enable-background="new    ">
		<path fill="#C1EB2E" d="M336.443,335.757v4.027h-0.806v-2.599l-0.804,0.991l-0.807-0.991v2.599h-1.609v-4.027h1.41l1.006,1.211
			l1.006-1.211H336.443z"/>
		<path fill="#C1EB2E" d="M339.477,339.505h-0.817l-0.075,0.279h-1.449l0.967-3.221h1.291l0.963,3.221h-0.803L339.477,339.505z
			 M339.274,338.778l-0.207-0.766l-0.207,0.766H339.274z"/>
		<path fill="#C1EB2E" d="M344.155,338.537h-0.967l0.967,1.246h-0.845l-0.968-1.246H342.3v1.246h-1.367v-3.221h3.22L344.155,338.537
			L344.155,338.537z M343.43,337.488c0,0,0-0.199-0.202-0.199h-0.927v0.524h0.927c0.202,0,0.202-0.202,0.202-0.202V337.488z"/>
		<path fill="#C1EB2E" d="M347.423,338.497h-2.375v-1.935h2.899v0.727h-1.41c0,0-0.201,0-0.201,0.198v0.084c0,0,0,0.201,0.201,0.201
			h1.731v2.011h-3.22v-0.886h2.375c0,0,0.202,0,0.202-0.199C347.625,338.7,347.625,338.497,347.423,338.497z"/>
		<path fill="#C1EB2E" d="M352.355,338.74v1.044h-3.224v-3.221h2.578v0.726h-1.208v0.362h1.53v0.724h-1.53v0.365H352.355
			L352.355,338.74z"/>
		<path fill="#C1EB2E" d="M354.472,339.784h-1.37v-3.221h1.37V339.784z"/>
		<path fill="#C1EB2E" d="M355.394,336.562h1.369v2.499h1.853v0.722h-3.222V336.562L355.394,336.562z"/>
		<path fill="#C1EB2E" d="M359.132,336.562h1.371v2.499h1.853v0.722h-3.224V336.562L359.132,336.562z"/>
		<path fill="#C1EB2E" d="M366.096,338.74v1.044h-3.222v-3.221h2.577v0.726h-1.208v0.362h1.53v0.724h-1.53v0.365H366.096
			L366.096,338.74z"/>
	</g>
	<g>
		<path fill="#C1EB2E" d="M452.852,174.526h-3.346v-3.522h3.346c0.176,0,0.176,0.176,0.176,0.176v3.17
			C453.027,174.35,453.027,174.526,452.852,174.526z M452.322,171.884c0,0,0-0.176-0.175-0.176h-1.236v1.761h1.236
			c0,0,0.175,0,0.175-0.177V171.884z"/>
		<path fill="#C1EB2E" d="M455.133,174.526h-1.197v-2.818h1.197V174.526z"/>
		<path fill="#C1EB2E" d="M458.756,172.975v1.551h-2.819v-2.819h2.256v0.634h-0.882c0,0-0.177,0-0.177,0.176v0.916
			c0,0,0,0.177,0.177,0.177h0.811v-0.635H458.756z"/>
		<path fill="#C1EB2E" d="M462.138,171.708v2.819h-0.636V173.4l-0.845-0.741v1.869h-1.197v-2.819h1.059l0.983,0.846v-0.846
			L462.138,171.708L462.138,171.708z"/>
		<path fill="#C1EB2E" d="M465.764,173.61v0.916h-2.82v-2.818h2.254v0.634h-1.058v0.317h1.338v0.634h-1.338v0.318L465.764,173.61
			L465.764,173.61z"/>
	</g>
	<g enable-background="new    ">
		<path fill="#C1EB2E" d="M581.897,238.894v3.521h-0.702v-1.408l-1.233-1.058v2.465h-1.41v-3.521h1.232l1.411,1.232v-1.232
			L581.897,238.894L581.897,238.894z"/>
		<path fill="#C1EB2E" d="M584.003,242.415h-1.197v-2.818h1.197V242.415z"/>
		<path fill="#C1EB2E" d="M584.808,239.596h2.254v0.634h-0.881c0,0-0.175,0-0.175,0.177v0.916c0,0,0,0.178,0.175,0.178h1.445v0.914
			h-2.818V239.596L584.808,239.596L584.808,239.596z"/>
		<path fill="#C1EB2E" d="M591.05,241.5v0.914h-2.816v-2.818h2.256v0.634h-1.06v0.318h1.338v0.634h-1.338v0.318H591.05z"/>
	</g>
	<g enable-background="new    ">
		<path fill="#C1EB2E" d="M412.842,353.617v0.705h-1.234v2.816H410.2v-2.816h-1.235v-0.705H412.842z"/>
		<path fill="#C1EB2E" d="M416.163,354.322v2.816h-2.822v-2.816H416.163z M415.526,355.132c0,0,0-0.179-0.175-0.179h-0.636
			c0,0-0.174,0-0.174,0.179v0.915c0,0,0,0.178,0.174,0.178h0.636c0,0,0.175,0,0.175-0.178V355.132z"/>
		<path fill="#C1EB2E" d="M419.787,354.322v2.816h-2.819v-2.816h1.196v1.726c0,0,0,0.178,0.178,0.178h0.6c0,0,0.176,0,0.176-0.178
			v-1.726H419.787z"/>
		<path fill="#C1EB2E" d="M420.594,354.322h1.195v2.184h1.621v0.633h-2.816V354.322z"/>
		<path fill="#C1EB2E" d="M426.683,354.322v2.816h-2.82v-2.816H426.683z M426.046,355.132c0,0,0-0.179-0.175-0.179h-0.635
			c0,0-0.175,0-0.175,0.179v0.915c0,0,0,0.178,0.175,0.178h0.635c0,0,0.175,0,0.175-0.178V355.132z"/>
		<path fill="#C1EB2E" d="M430.164,354.322v2.816h-0.635v-1.126l-0.846-0.738v1.864h-1.196v-2.816h1.058l0.985,0.846v-0.846H430.164
			z"/>
	</g>
	<g>
		<path fill="#C1EB2E" d="M264.291,220.123h-1.197l-0.107,0.354h-1.409l1.057-3.523h1.41l1.057,3.523h-0.703L264.291,220.123z
			 M264.08,219.418l-0.387-1.293l-0.388,1.293H264.08z"/>
		<path fill="#C1EB2E" d="M267.416,217.658h0.706l-0.849,2.818h-1.125l-0.846-2.818h1.268l0.422,1.55L267.416,217.658z"/>
		<path fill="#C1EB2E" d="M269.821,220.477h-1.199v-2.819h1.199V220.477z"/>
		<path fill="#C1EB2E" d="M273.443,218.926v1.551h-2.817v-2.819h2.255v0.634H272c0,0-0.176,0-0.176,0.176v0.917
			c0,0,0,0.176,0.176,0.176h0.81v-0.634H273.443L273.443,218.926z"/>
		<path fill="#C1EB2E" d="M276.826,217.658v2.818h-0.635v-1.128l-0.845-0.741v1.869h-1.199v-2.819h1.058l0.987,0.845v-0.845H276.826
			L276.826,217.658z"/>
		<path fill="#C1EB2E" d="M280.448,217.658v2.818h-2.818v-2.818H280.448z M279.814,218.468c0,0,0-0.176-0.177-0.176h-0.633
			c0,0-0.177,0-0.177,0.176v0.917c0,0,0,0.176,0.177,0.176h0.633c0,0,0.177,0,0.177-0.176V218.468z"/>
		<path fill="#C1EB2E" d="M283.93,217.658v2.818h-0.633v-1.128l-0.846-0.741v1.869h-1.197v-2.819h1.056l0.987,0.845v-0.845H283.93
			L283.93,217.658z"/>
	</g>
	<path fill="#C1EB2E" d="M410.726,359.558c0.973,0,1.762,0.787,1.762,1.762c0,0.974-0.789,1.761-1.762,1.761
		c-0.971,0-1.763-0.787-1.763-1.761C408.963,360.345,409.755,359.558,410.726,359.558z"/>
	<circle fill="#C1EB2E" cx="334.27" cy="344.159" r="2.013"/>
	<path fill="#C1EB2E" d="M451.268,177.352c0.97,0,1.762,0.788,1.762,1.762c0,0.972-0.792,1.762-1.762,1.762
		c-0.975,0-1.762-0.789-1.762-1.762C449.506,178.141,450.293,177.352,451.268,177.352z"/>
	<path fill="#C1EB2E" d="M580.314,245.597c0.968,0,1.762,0.788,1.762,1.762c0,0.971-0.794,1.762-1.762,1.762
		c-0.975,0-1.763-0.791-1.763-1.762C578.552,246.385,579.34,245.597,580.314,245.597z"/>
</g>
</svg>
