<?xml version="1.0" encoding="utf-8"?>
<!-- Generator: Adobe Illustrator 13.0.0, SVG Export Plug-In . SVG Version: 6.00 Build 14948)  -->
<!DOCTYPE svg PUBLIC "-//W3C//DTD SVG 1.1//EN" "http://www.w3.org/Graphics/SVG/1.1/DTD/svg11.dtd">
<svg version="1.1" id="Layer_1" xmlns="http://www.w3.org/2000/svg" xmlns:xlink="http://www.w3.org/1999/xlink" x="0px" y="0px"
	 width="100%" height="100%" viewBox="66.5 -200 890 1182" enable-background="new 66.5 -200 890 1182" xml:space="preserve">
	 xml:space="preserve">
<g>
	<path fill="#28717E" d="M955.458,171.253l0.369,1.733l-46.689,46.686l21.108,41.57L803.611,364.851c0,0-5.756-30.06-14.071-21.745
		l-68.257,61.515l-20.129,20.059h-2.129l-13.088,11.796l31.978,31.979l-8.953,26.857l-126.628,39.652h-86.979v-19.187
		l-124.068-24.304l-16.628-44.768l-56.279,8.953l-22.017-40.363l-2.523-0.329l-30.461,30.462l-80.583-7.677l-20.464-20.466
		L68.14,404.498c0,0,0.044-0.033,0.108-0.082l-1.811,0.377v570.951h890.125V170.153L955.458,171.253z"/>
	<path fill="#A0CA10" stroke="#A0CA10" stroke-width="4.0007" stroke-linecap="round" stroke-linejoin="round" d="M68.14,404.498
		c0,0,62.678-47.324,75.466-75.463h35.813v-61.396l35.174-35.175L179.419,98.8l35.812,23.023h44.768L233.776,95.6l5.758-30.056
		l43.489,19.184l11.513,33.258l84.418,48.604l61.396-21.745L417.328,82.17l-48.604-10.232l6.396-25.582h34.534l23.662-23.662
		l-9.593-33.896l107.442-78.024l71.629-10.231l-11.512-53.722l-30.699-14.068l31.979-33.256l35.812,17.908l8.955-24.303h28.141
		l101.047,90.814l11.516,58.837L730.066-9.284l42.849,104.245l112.562,40.93l57.558-23.021l12.793,60.117l-46.689,46.686
		l21.108,41.57L803.611,364.851c0,0-5.756-30.06-14.071-21.745l-103.603,93.369l31.978,31.979l-8.953,26.857l-126.628,39.652
		h-86.979v-19.187l-124.068-24.304l-16.628-44.768l-56.279,8.953l-23.023-42.209l-31.978,31.979l-80.583-7.677l-20.464-20.466
		L68.14,404.498z"/>
	<circle fill="#C1EB2E" cx="240.498" cy="229.698" r="3.5"/>
	<g enable-background="new    ">
		<path fill="#C1EB2E" d="M386.214,451.721v8h-1.6v-5.165l-1.6,1.967l-1.601-1.967v5.165h-3.2v-8h2.801l2,2.4l2-2.4H386.214z"/>
		<path fill="#C1EB2E" d="M392.241,459.161h-1.624l-0.148,0.56h-2.88l1.919-6.399h2.562l1.919,6.399h-1.599L392.241,459.161z
			 M391.84,457.722l-0.41-1.521l-0.411,1.521H391.84z"/>
		<path fill="#C1EB2E" d="M401.534,457.241h-1.92l1.92,2.479h-1.68l-1.921-2.479h-0.079v2.479h-2.72v-6.399h6.4L401.534,457.241
			L401.534,457.241z M400.094,455.161c0,0,0-0.4-0.399-0.4h-1.84v1.04h1.84c0.399,0,0.399-0.399,0.399-0.399V455.161z"/>
		<path fill="#C1EB2E" d="M408.029,457.161h-4.721v-3.84h5.76v1.439h-2.8c0,0-0.399,0-0.399,0.4v0.16c0,0,0,0.399,0.399,0.399h3.44
			v4h-6.4v-1.76h4.72c0,0,0.4,0,0.4-0.399C408.429,457.562,408.429,457.161,408.029,457.161z"/>
		<path fill="#C1EB2E" d="M417.826,457.642v2.079h-6.401v-6.399h5.121v1.439h-2.4v0.72h3.04v1.441h-3.04v0.72H417.826
			L417.826,457.642z"/>
		<path fill="#C1EB2E" d="M422.034,459.721h-2.72v-6.399h2.72V459.721z"/>
		<path fill="#C1EB2E" d="M423.865,453.321h2.721v4.96h3.68v1.439h-6.401L423.865,453.321L423.865,453.321z"/>
		<path fill="#C1EB2E" d="M431.297,453.321h2.72v4.96h3.68v1.439h-6.4L431.297,453.321L431.297,453.321z"/>
		<path fill="#C1EB2E" d="M445.128,457.642v2.079h-6.4v-6.399h5.119v1.439h-2.399v0.72h3.04v1.441h-3.04v0.72H445.128
			L445.128,457.642z"/>
	</g>
	<g>
		<path fill="#C1EB2E" d="M617.502,131.37h-6.649v-6.999h6.649c0.35,0,0.35,0.35,0.35,0.35v6.3
			C617.852,131.021,617.852,131.37,617.502,131.37z M616.452,126.12c0,0,0-0.35-0.35-0.35h-2.45v3.5h2.45c0,0,0.35,0,0.35-0.351
			V126.12z"/>
		<path fill="#C1EB2E" d="M622.033,131.37h-2.38v-5.6h2.38V131.37z"/>
		<path fill="#C1EB2E" d="M629.233,128.29v3.08h-5.6v-5.601h4.479v1.26h-1.749c0,0-0.351,0-0.351,0.35v1.82c0,0,0,0.351,0.351,0.351
			h1.609v-1.26H629.233z"/>
		<path fill="#C1EB2E" d="M635.953,125.771v5.6h-1.26v-2.239l-1.68-1.47v3.71h-2.381v-5.601h2.101l1.96,1.681v-1.681H635.953
			L635.953,125.771z"/>
		<path fill="#C1EB2E" d="M643.153,129.55v1.82h-5.6v-5.6h4.479v1.26h-2.1v0.631h2.659v1.26h-2.659v0.63L643.153,129.55
			L643.153,129.55z"/>
	</g>
	<g enable-background="new    ">
		<path fill="#C1EB2E" d="M873.901,259.26v6.999h-1.399v-2.799l-2.45-2.101v4.899h-2.799v-6.999h2.449l2.8,2.449v-2.449H873.901z"/>
		<path fill="#C1EB2E" d="M878.085,266.259h-2.38v-5.6h2.38V266.259z"/>
		<path fill="#C1EB2E" d="M879.686,260.659h4.479v1.261h-1.749c0,0-0.351,0-0.351,0.351v1.819c0,0,0,0.351,0.351,0.351h2.869v1.819
			h-5.6V260.659L879.686,260.659z"/>
		<path fill="#C1EB2E" d="M892.087,264.439v1.819h-5.6v-5.6h4.48v1.261h-2.101v0.63h2.66v1.26h-2.66v0.63H892.087z"/>
	</g>
	<g enable-background="new    ">
		<path fill="#C1EB2E" d="M538.005,487.203v1.4h-2.45v5.6h-2.8v-5.6h-2.45v-1.4H538.005z"/>
		<path fill="#C1EB2E" d="M544.605,488.604v5.6h-5.601v-5.6H544.605z M543.345,490.213c0,0,0-0.351-0.35-0.351h-1.261
			c0,0-0.35,0-0.35,0.351v1.82c0,0,0,0.35,0.35,0.35h1.261c0,0,0.35,0,0.35-0.35V490.213z"/>
		<path fill="#C1EB2E" d="M551.806,488.604v5.6h-5.601v-5.6h2.381v3.43c0,0,0,0.35,0.35,0.35h1.19c0,0,0.35,0,0.35-0.35v-3.43
			H551.806z"/>
		<path fill="#C1EB2E" d="M553.406,488.604h2.38v4.34h3.22v1.26h-5.6V488.604z"/>
		<path fill="#C1EB2E" d="M565.506,488.604v5.6h-5.6v-5.6H565.506z M564.246,490.213c0,0,0-0.351-0.35-0.351h-1.261
			c0,0-0.35,0-0.35,0.351v1.82c0,0,0,0.35,0.35,0.35h1.261c0,0,0.35,0,0.35-0.35V490.213z"/>
		<path fill="#C1EB2E" d="M572.426,488.604v5.6h-1.26v-2.24l-1.68-1.47v3.71h-2.38v-5.6h2.1l1.961,1.68v-1.68H572.426z"/>
	</g>
	<g>
		<path fill="#C1EB2E" d="M242.854,221.967h-2.38l-0.21,0.701h-2.8l2.1-7h2.8l2.101,7h-1.4L242.854,221.967z M242.435,220.567
			l-0.77-2.569l-0.77,2.569H242.435z"/>
		<path fill="#C1EB2E" d="M249.063,217.068h1.4l-1.681,5.599h-2.239l-1.68-5.599h2.521l0.839,3.079L249.063,217.068z"/>
		<path fill="#C1EB2E" d="M253.842,222.668h-2.38v-5.6h2.38V222.668z"/>
		<path fill="#C1EB2E" d="M261.041,219.587v3.081h-5.599v-5.6h4.479v1.259h-1.75c0,0-0.35,0-0.35,0.35v1.821c0,0,0,0.35,0.35,0.35
			h1.61v-1.261H261.041L261.041,219.587z"/>
		<path fill="#C1EB2E" d="M267.759,217.068v5.599h-1.26v-2.239l-1.679-1.471v3.711h-2.38v-5.6h2.1l1.96,1.679v-1.679H267.759
			L267.759,217.068z"/>
		<path fill="#C1EB2E" d="M274.957,217.068v5.599h-5.6v-5.599H274.957z M273.698,218.677c0,0,0-0.35-0.351-0.35h-1.26
			c0,0-0.349,0-0.349,0.35v1.821c0,0,0,0.35,0.349,0.35h1.26c0,0,0.351,0,0.351-0.35V218.677z"/>
		<path fill="#C1EB2E" d="M281.876,217.068v5.599h-1.259v-2.239l-1.681-1.471v3.711h-2.379v-5.6h2.099l1.961,1.679v-1.679H281.876
			L281.876,217.068z"/>
	</g>
	<circle fill="#C1EB2E" cx="533.804" cy="502.506" r="3.5"/>
	<circle fill="#C1EB2E" cx="381.896" cy="468.409" r="4"/>
	<circle fill="#C1EB2E" cx="614.353" cy="140.486" r="3.5"/>
	<circle fill="#C1EB2E" cx="870.753" cy="276.081" r="3.5"/>
</g>
</svg>
